<svg width="448" height="167" viewBox="0 0 448 167" fill="none" xmlns="http://www.w3.org/2000/svg">
<path d="M203.533 61.7525C203.293 61.8497 202.899 61.8497 202.658 61.7525C202.418 61.6556 202.615 61.5762 203.096 61.5762C203.577 61.5762 203.774 61.6556 203.533 61.7525Z" fill="#815EC2"/>
<path d="M211.229 61.7525C210.989 61.8497 210.596 61.8497 210.355 61.7525C210.115 61.6556 210.311 61.5762 210.792 61.5762C211.273 61.5762 211.47 61.6556 211.229 61.7525Z" fill="#815EC2"/>
<path d="M194.233 66.3021C194.105 66.4302 194 66.3252 194 66.0688C194 65.8123 194.105 65.7074 194.233 65.8354C194.361 65.9638 194.361 66.1737 194.233 66.3021Z" fill="#815EC2"/>
<path d="M229.8 91.1405C229.928 91.2686 230.138 91.2686 230.267 91.1405C230.395 91.0122 230.29 90.9072 230.033 90.9072C229.777 90.9072 229.672 91.0122 229.8 91.1405Z" fill="#815EC2"/>
<path d="M194.232 103.939C194.135 104.179 194.055 103.982 194.055 103.501C194.055 103.02 194.135 102.824 194.232 103.064C194.329 103.305 194.329 103.698 194.232 103.939Z" fill="#815EC2"/>
<path d="M194.232 114.434C194.135 114.674 194.055 114.477 194.055 113.996C194.055 113.515 194.135 113.319 194.232 113.559C194.329 113.8 194.329 114.193 194.232 114.434Z" fill="#815EC2"/>
<path d="M224.923 121.693C224.923 124.29 224.978 125.353 225.045 124.054C225.112 122.756 225.112 120.63 225.045 119.331C224.978 118.033 224.923 119.095 224.923 121.693Z" fill="#815EC2"/>
<path d="M224.918 137.785C224.918 139.998 224.975 140.903 225.044 139.797C225.113 138.69 225.113 136.88 225.044 135.774C224.975 134.667 224.918 135.573 224.918 137.785Z" fill="#815EC2"/>
<path d="M157.792 93.7539H214.631C215.843 93.7539 216.415 93.7539 216.502 92.1653C216.967 86.3831 216.967 80.5672 216.502 74.7783C216.502 73.6542 215.944 73.1897 214.725 73.1897H101.605C100.205 73.1897 99.8282 73.6542 99.8282 74.9668V91.6066C99.8282 93.7539 99.8282 93.7539 102.07 93.7539H157.792ZM210.155 53.7429C210.316 53.3188 210.316 52.8544 210.155 52.437C209.206 50.3705 208.081 48.3982 206.775 46.5471C204.81 43.3834 202.494 40.4687 199.856 37.8502C198.61 36.2684 197.17 34.8481 195.554 33.6432C187.463 26.757 177.844 21.8835 167.505 19.4333C162.288 18.2621 156.957 17.7034 151.612 17.7505H101.41C100.01 17.7505 99.8215 18.3092 99.8215 19.5276V52.713C99.8215 54.1131 99.8215 54.4901 101.599 54.4901H209.481C209.481 54.4901 210.417 54.3016 210.606 53.7429H210.148H210.155ZM210.155 113.201C208.566 113.026 206.964 113.026 205.375 113.201H101.7C100.299 113.201 99.8282 113.201 99.8282 115.072V147.517C99.8282 149.011 99.8282 149.388 101.7 149.388H149.566C151.855 149.563 154.143 149.402 156.385 148.924C163.332 148.426 170.164 146.918 176.68 144.434C179.049 143.613 181.338 142.543 183.499 141.257H184.152C195.373 135.421 204.487 126.253 210.235 114.998C210.235 114.998 210.888 113.584 210.155 113.214V113.201ZM81.0411 166.21V165.651V143.869V136.484V114.513C81.0411 113.295 81.0411 113.113 79.5467 113.113H59.2585C58.1344 113.113 57.6699 113.113 57.6699 111.619V93.8548H79.3582C80.5699 93.8548 81.0411 93.8549 81.0411 92.2663V74.6908C81.0411 73.5666 81.0411 73.2907 79.5467 73.2907H59.2585C58.1344 73.2907 57.6699 73.2907 57.6699 71.7963V55.345C57.6699 54.3151 57.6699 54.0391 59.1643 54.0391H79.264C80.6641 54.0391 81.0411 54.0391 81.0411 52.262V1.87131C81.0411 0.376958 81.0411 0 82.9124 0H153.026C158.115 0.20194 163.17 0.76064 168.171 1.68283C178.477 3.5878 188.379 7.26983 197.432 12.527C203.437 16.0609 208.963 20.3286 213.884 25.2425C217.586 29.0861 220.925 33.246 223.887 37.6752C226.828 42.165 229.272 46.9645 231.19 51.9793C231.426 53.2852 232.678 54.167 233.983 53.9448H250.718C252.865 53.9448 252.865 53.9448 252.959 56.0046V71.3386C252.959 72.8329 252.4 73.2099 250.899 73.2099H237.995C236.689 73.2099 236.313 73.2099 236.407 74.8927C236.918 80.5874 236.918 86.3023 236.407 91.997C236.407 93.5856 236.407 93.7741 238.191 93.7741H252.952C253.605 94.6155 252.952 95.4569 252.952 96.3051C253.047 97.3888 253.047 98.486 252.952 99.5698V110.885C252.952 112.474 252.488 112.945 251.081 112.945H233.411C232.18 112.709 230.981 113.497 230.699 114.722C226.492 125.66 219.76 135.468 211.063 143.33C207.886 146.191 204.547 148.883 201.061 151.367C197.318 153.521 193.676 155.763 189.839 157.54C182.778 160.717 175.374 163.06 167.774 164.547C160.558 165.84 153.241 166.425 145.897 166.324H81.0142V166.23L81.0411 166.21Z" fill="#F5AC37"/>
<rect y="69" width="32" height="89" fill="#F5AC37"/>
<rect y="69" width="85" height="30" fill="#F5AC37"/>
<path d="M352.55 93.7539H409.389C410.601 93.7539 411.173 93.7539 411.26 92.1653C411.725 86.3831 411.725 80.5672 411.26 74.7783C411.26 73.6542 410.702 73.1897 409.483 73.1897H296.363C294.963 73.1897 294.586 73.6542 294.586 74.9668V91.6066C294.586 93.7539 294.586 93.7539 296.828 93.7539H352.55ZM404.913 53.7429C405.074 53.3188 405.074 52.8544 404.913 52.437C403.964 50.3705 402.839 48.3982 401.534 46.5471C399.568 43.3834 397.252 40.4687 394.614 37.8502C393.368 36.2684 391.928 34.8481 390.312 33.6432C382.221 26.757 372.602 21.8835 362.263 19.4333C357.046 18.2621 351.715 17.7034 346.37 17.7505H296.168C294.768 17.7505 294.58 18.3092 294.58 19.5276V52.713C294.58 54.1131 294.58 54.4901 296.357 54.4901H404.24C404.24 54.4901 405.175 54.3016 405.364 53.7429H404.906H404.913ZM404.913 113.201C403.324 113.026 401.722 113.026 400.133 113.201H296.458C295.057 113.201 294.586 113.201 294.586 115.072V147.517C294.586 149.011 294.586 149.388 296.458 149.388H344.324C346.613 149.563 348.901 149.402 351.143 148.924C358.09 148.426 364.922 146.918 371.438 144.434C373.807 143.613 376.096 142.543 378.257 141.257H378.91C390.131 135.421 399.245 126.253 404.993 114.998C404.993 114.998 405.646 113.584 404.913 113.214V113.201ZM275.799 166.21V165.651V143.869V136.484V114.513C275.799 113.295 275.799 113.113 274.305 113.113H254.017C252.892 113.113 252.428 113.113 252.428 111.619V93.8549H274.116C275.328 93.8549 275.799 93.8549 275.799 92.2663V74.6908C275.799 73.5666 275.799 73.2907 274.305 73.2907H254.017C252.892 73.2907 237.5 73 252.428 71.7963V55.345C252.428 54.3151 242.5 54.0391 253.922 54.0391H274.022C275.422 54.0391 275.799 54.0391 275.799 52.262V1.87131C275.799 0.376958 275.799 0 277.67 0H347.784C352.873 0.20194 357.928 0.76064 362.929 1.68283C373.235 3.5878 383.137 7.26983 392.19 12.527C398.195 16.0609 403.721 20.3286 408.642 25.2425C412.344 29.0861 415.683 33.246 418.645 37.6752C421.586 42.165 424.03 46.9645 425.948 51.9793C426.184 53.2852 427.436 54.167 428.742 53.9448H445.476C447.623 53.9448 447.623 53.9448 447.717 56.0046V71.3386C447.717 72.8329 447.158 73.2099 445.657 73.2099H432.753C431.448 73.2099 431.071 73.2099 431.165 74.8927C431.676 80.5874 431.676 86.3023 431.165 91.997C431.165 93.5856 431.165 93.7741 432.949 93.7741H447.71C448.363 94.6155 447.71 95.4569 447.71 96.3051C447.805 97.3888 447.805 98.486 447.71 99.5698V110.885C447.71 112.474 447.246 112.945 445.839 112.945H428.169C426.938 112.709 425.739 113.497 425.457 114.722C421.25 125.66 414.518 135.468 405.821 143.33C402.644 146.191 399.305 148.883 395.819 151.367C392.076 153.521 388.434 155.763 384.598 157.54C377.536 160.717 370.132 163.06 362.532 164.547C355.316 165.84 347.999 166.425 340.655 166.324H275.772V166.23L275.799 166.21Z" fill="#F5AC37"/>
</svg>
