<svg width="403" height="163" viewBox="0 0 403 163" fill="none" xmlns="http://www.w3.org/2000/svg">
<rect y="62" width="32" height="89" fill="black"/>
<rect y="62" width="85" height="30" fill="black"/>
<path d="M221.63 81.93C221.63 67.55 217.31 54.17 209.91 42.99L231.86 21.04L212.12 1.3L190.23 23.19C178.99 15.64 165.47 11.23 150.94 11.23C136.56 11.23 123.18 15.55 112 22.95L90.04 1L70.3 20.74L92.19 42.63C84.64 53.87 80.23 67.39 80.23 81.92C80.23 96.3 84.55 109.68 91.95 120.86L70 142.82L89.74 162.56L111.63 140.67C122.87 148.22 136.39 152.63 150.92 152.63C165.3 152.63 178.68 148.31 189.86 140.91L211.82 162.87L231.56 143.13L209.67 121.24C217.22 109.98 221.63 96.46 221.63 81.93ZM108.16 81.93C108.16 58.34 127.35 39.15 150.94 39.15C174.53 39.15 193.72 58.34 193.72 81.93C193.72 105.52 174.53 124.71 150.94 124.71C127.35 124.71 108.16 105.52 108.16 81.93Z" fill="black"/>
<rect x="207" y="63" width="50" height="30" fill="black"/>
<path d="M392.63 80.93C392.63 66.55 388.31 53.17 380.91 41.99L402.86 20.04L383.12 0.299999L361.23 22.19C349.99 14.64 336.47 10.23 321.94 10.23C307.56 10.23 294.18 14.55 283 21.95L261.04 0L241.3 19.74L263.19 41.63C255.64 52.87 251.23 66.39 251.23 80.92C251.23 95.3 255.55 108.68 262.95 119.86L241 141.82L260.74 161.56L282.63 139.67C293.87 147.22 307.39 151.63 321.92 151.63C336.3 151.63 349.68 147.31 360.86 139.91L382.82 161.87L402.56 142.13L380.67 120.24C388.22 108.98 392.63 95.46 392.63 80.93ZM279.16 80.93C279.16 57.34 298.35 38.15 321.94 38.15C345.53 38.15 364.72 57.34 364.72 80.93C364.72 104.52 345.53 123.71 321.94 123.71C298.35 123.71 279.16 104.52 279.16 80.93Z" fill="black"/>
</svg>
